<svg xmlns="http://www.w3.org/2000/svg" viewBox="14.6 4.4 273.6 371"><path fill="#5382A1" d="M102.7 291.3s-14.2 8.2 10.1 11c29.4 3.4 44.4 2.9 76.8-3.3 0 0 8.5 5.3 20.4 10-72.6 31.2-164.4-1.7-107.3-17.7M93.8 250.7s-15.9 11.8 8.4 14.3c31.4 3.2 56.2 3.5 99.1-4.8 0 0 5.9 6 15.3 9.3-87.8 25.7-185.6 2.1-122.8-18.8"/><path fill="#E76F00" d="M168.6 181.8c17.9 20.6-4.7 39.1-4.7 39.1s45.4-23.5 24.6-52.8c-19.5-27.4-34.4-41 46.5-87.9 0 0-127 31.7-66.4 101.6"/><path fill="#5382A1" d="M264.7 321.4s10.5 8.6-11.6 15.3c-41.9 12.7-174.5 16.5-211.3.5-13.2-5.8 11.6-13.8 19.4-15.4 8.1-1.8 12.8-1.4 12.8-1.4-14.7-10.4-95.2 20.4-40.9 29.2 148.1 23.9 270-10.9 231.6-28.2M109.5 208.6s-67.4 16-23.9 21.8c18.4 2.5 55 1.9 89.2-1 27.9-2.4 55.9-7.4 55.9-7.4s-9.8 4.2-17 9.1c-68.5 18-200.8 9.6-162.7-8.8 32.3-15.4 58.5-13.7 58.5-13.7M230.5 276.2c69.6-36.2 37.4-70.9 15-66.2-5.5 1.1-8 2.1-8 2.1s2-3.2 5.9-4.6c44.4-15.6 78.6 46.1-14.3 70.5 0 .1 1-.9 1.4-1.8"/><path fill="#E76F00" d="M188.5 4.4s38.6 38.6-36.6 97.9c-60.2 47.6-13.7 74.7 0 105.7-35.2-31.7-61-59.6-43.7-85.6 25.5-38.2 95.8-56.7 80.3-118"/><path fill="#5382A1" d="M116.3 374.2c66.8 4.3 169.4-2.4 171.8-34 0 0-4.7 12-55.2 21.5-57 10.7-127.4 9.5-169.1 2.6.1.1 8.6 7.1 52.5 9.9"/></svg>